<svg width="30" height="31" viewBox="0 0 30 31" fill="none" xmlns="http://www.w3.org/2000/svg">
<path d="M0.0067515 15.505C0.0067515 13.4222 -0.011295 11.3393 0.0116211 9.25676C0.0351101 7.13496 0.745795 5.25366 2.12076 3.63576C3.44388 2.07913 5.11675 1.09911 7.11561 0.679103C7.68737 0.558856 8.26772 0.504172 8.85208 0.504172C12.9492 0.503027 17.0466 0.493579 21.1437 0.507607C23.4869 0.515624 25.5232 1.33703 27.2296 2.9452C28.5768 4.21467 29.431 5.76844 29.8157 7.57845C29.9312 8.12128 29.9947 8.67213 29.995 9.22784C29.9968 13.4079 30.0074 17.5879 29.991 21.7677C29.9836 23.6458 29.3946 25.3496 28.2832 26.8639C27.1466 28.4125 25.6567 29.4827 23.83 30.0785C22.9816 30.355 22.1085 30.4959 21.2159 30.4965C17.0901 30.4988 12.9641 30.5039 8.83833 30.4948C6.76757 30.4902 4.91738 29.8274 3.30695 28.5256C1.77358 27.2859 0.764415 25.7015 0.272865 23.7901C0.0866714 23.066 0.00531915 22.3288 0.00531915 21.5821C0.00474625 19.5565 0.00531915 17.5309 0.00531915 15.5053H0.00646498L0.0067515 15.505ZM28.6364 15.5128C28.6364 13.4946 28.6364 11.4762 28.6364 9.45803C28.6364 8.7543 28.5573 8.06087 28.3686 7.3809C27.9466 5.8612 27.1334 4.59058 25.9183 3.58852C24.5207 2.43615 22.9068 1.86955 21.0944 1.86984C17.0297 1.87041 12.9649 1.87041 8.9002 1.86955C8.41953 1.86955 7.94288 1.90649 7.47138 1.99925C5.48169 2.39091 3.89475 3.41473 2.7246 5.06671C1.80022 6.37168 1.36969 7.83784 1.37083 9.43627C1.37398 13.4763 1.37255 17.5166 1.37083 21.5566C1.37083 22.1347 1.4201 22.7067 1.54872 23.2702C1.93199 24.9479 2.7816 26.3431 4.11188 27.4345C5.51693 28.5871 7.14053 29.1368 8.95434 29.1368C12.9833 29.1368 17.0122 29.1368 21.0411 29.1368C21.7558 29.1368 22.4614 29.0609 23.1491 28.862C25.1537 28.2813 26.6754 27.082 27.7003 25.264C28.3477 24.1156 28.6378 22.8722 28.637 21.5566C28.6355 19.5419 28.6367 17.5272 28.6367 15.5125L28.6364 15.5128Z" fill="white"/>
<path d="M22.5009 15.5036C22.498 19.6341 19.1196 23.0099 14.9976 23.0013C10.8515 22.9927 7.49973 19.6246 7.50489 15.4721C7.50976 11.361 10.8936 7.99411 15.0113 8.0027C19.1411 8.01129 22.5035 11.3788 22.5006 15.5036H22.5009ZM21.1345 15.4998C21.1305 12.0974 18.3975 9.36866 14.9973 9.36665C11.5963 9.36436 8.77931 12.1535 8.86954 15.6685C8.95462 18.9887 11.6753 21.6428 15.0111 21.6353C18.4032 21.6276 21.1385 18.892 21.1345 15.4998Z" fill="white"/>
<path d="M23.18 8.68249C22.4275 8.68249 21.8151 8.06894 21.8174 7.3174C21.8197 6.57186 22.4313 5.95946 23.1775 5.95631C23.9311 5.95316 24.5433 6.56929 24.5427 7.33057C24.5421 8.07667 23.9317 8.68249 23.18 8.68249Z" fill="white"/>
</svg>
