<svg width="24" height="25" viewBox="0 0 24 25" fill="none" xmlns="http://www.w3.org/2000/svg">
<path d="M23.8385 19.006L23.743 18.8594C23.7944 18.9107 23.4883 18.5394 23.4883 18.5394C23.4883 18.5394 23.2018 18.1852 22.4451 17.5305C21.8255 16.9931 21.0492 16.375 20.4468 15.9573C19.7121 15.4492 19.2027 15.1243 19.2346 15.1439L18.6958 14.8629C18.4607 14.7408 18.064 14.7261 17.7873 14.8287C17.5351 14.9191 17.3147 15.1268 17.2118 15.3124C17.2559 15.2294 17.0379 15.481 16.5922 16.3115C16.4012 16.6731 16.1784 17.1861 15.909 17.6893C15.5441 18.3733 14.5964 19.0499 13.6511 18.4881C12.4536 17.7772 10.9132 16.7952 9.33126 15.2196C7.49703 13.3997 6.49544 11.9999 5.92729 10.6686C5.71914 10.1849 5.81464 9.17112 6.57135 8.78515C7.31826 8.40407 7.74927 8.30636 8.22191 8.00833C8.65046 7.72985 8.56475 7.82268 9.06433 7.47824C9.08392 7.46358 9.24554 7.31701 9.26758 7.30235C9.26758 7.30235 9.30432 7.26327 9.3337 7.23151C9.64716 6.92127 9.72553 6.50843 9.5688 6.10048L9.50268 5.88795C9.50268 5.88795 9.14269 5.03052 8.59414 4.05094C8.30272 3.53062 7.87906 2.88571 7.54846 2.42646C6.65706 1.1855 5.86362 0.801973 5.86362 0.801973C5.86362 0.801973 5.64077 0.679831 5.52567 0.626089C5.07508 0.425777 4.67346 0.484405 4.27919 0.660289C3.42697 0.992514 2.94209 1.442 2.28334 2.01118C0.833593 3.25214 -0.175352 4.97678 0.0254575 6.48156C0.341365 8.83401 3.16004 14.0177 6.84563 17.6844C10.5337 21.3535 15.7449 24.1579 18.1081 24.4681C19.695 24.6782 21.0419 23.8281 22.379 22.5359C22.8516 22.0815 23.4663 21.334 23.7822 20.6231C23.9634 20.2274 24.1373 19.453 23.8385 19.006Z" fill="white"/>
</svg>
