<svg width="30" height="31" viewBox="0 0 30 31" fill="none" xmlns="http://www.w3.org/2000/svg">
<path d="M2.5207e-07 15.5047C-0.00150146 7.21564 6.707 0.501878 14.9931 0.5C23.2727 0.498123 30.0034 7.21414 30 15.4743C29.9966 23.7821 23.2956 30.4966 15.0047 30.5C6.71977 30.503 0.00150196 23.7892 2.5207e-07 15.5047ZM0.952083 15.4953C0.94908 23.2483 7.24499 29.5434 14.9998 29.5415C22.7531 29.5397 29.0288 23.2693 29.0412 15.5122C29.0535 7.76189 22.7595 1.45621 15.0069 1.45246C7.2555 1.4487 0.955087 7.74387 0.952083 15.4953Z" fill="white"/>
<path d="M16.3405 13.1894C16.3405 13.8148 16.3266 14.4407 16.3469 15.0657C16.3555 15.3368 16.3998 15.6172 16.488 15.8725C16.6603 16.3711 17.035 16.477 17.4093 16.1076C17.7892 15.7325 18.1391 15.3177 18.4485 14.8822C19.2635 13.7345 19.895 12.4851 20.4109 11.1763C20.6057 10.6815 20.7566 10.5805 21.2788 10.5775C22.5425 10.5704 23.8062 10.558 25.0699 10.5561C25.2231 10.5561 25.3826 10.5873 25.5283 10.6361C25.7952 10.7258 25.9191 10.897 25.8523 11.1692C25.7682 11.5116 25.6559 11.8558 25.4968 12.1693C24.9813 13.1834 24.2808 14.0761 23.5964 14.9783C23.2337 15.4566 22.8676 15.9326 22.5136 16.4173C22.3965 16.5776 22.3004 16.7563 22.2137 16.9357C22.0616 17.2504 22.0823 17.5665 22.3056 17.8353C22.5407 18.118 22.7929 18.3894 23.0606 18.6413C23.8854 19.4181 24.7155 20.1888 25.3736 21.1195C25.5174 21.323 25.6477 21.5396 25.7569 21.7634C25.9965 22.2537 25.8504 22.6163 25.3372 22.8044C25.1638 22.8679 24.9734 22.9114 24.7898 22.9163C23.7266 22.9433 22.6634 22.967 21.5998 22.9689C20.9533 22.97 20.4075 22.6783 19.9558 22.2432C19.4929 21.7972 19.0762 21.3031 18.6317 20.8372C18.4121 20.6067 18.1917 20.3728 17.9435 20.1749C17.4179 19.7556 16.9682 19.8671 16.672 20.4753C16.4392 20.9528 16.3885 21.4713 16.3743 21.992C16.357 22.6283 16.0732 22.9276 15.4349 22.9182C14.7104 22.9077 13.979 22.9332 13.2635 22.842C11.7407 22.6475 10.4125 21.9822 9.24453 20.9956C8.18733 20.1025 7.36814 19.0047 6.60678 17.8631C5.25299 15.8327 4.13196 13.6752 3.14121 11.4485C2.89643 10.8985 3.05299 10.6365 3.6548 10.5715C3.83463 10.552 4.01708 10.555 4.19841 10.5535C5.08067 10.5471 5.96255 10.5434 6.8448 10.5373C7.36214 10.534 7.67599 10.7401 7.87422 11.2221C8.48579 12.7092 9.2419 14.1174 10.1857 15.4201C10.3678 15.6713 10.5931 15.8924 10.8108 16.1154C10.8912 16.1977 11.0015 16.2589 11.1089 16.3058C11.3537 16.4128 11.606 16.3418 11.7156 16.1008C11.823 15.865 11.9123 15.6097 11.9465 15.3544C12.0989 14.2207 12.0974 13.0846 11.9059 11.9542C11.8016 11.3374 11.3957 11.0201 10.8056 10.9049C10.5897 10.8628 10.5694 10.8069 10.7102 10.6297C10.9302 10.353 11.2208 10.1784 11.5628 10.1225C11.9874 10.053 12.4173 9.98284 12.8456 9.97946C13.6261 9.97308 14.407 10.0117 15.1875 10.041C15.3291 10.0463 15.4695 10.0943 15.6103 10.1244C16.0638 10.2209 16.333 10.5036 16.3679 10.9604C16.4032 11.4203 16.3972 11.8844 16.3972 12.3465C16.3972 12.6277 16.3739 12.9089 16.3611 13.1897C16.3544 13.1897 16.3472 13.1897 16.3405 13.1897V13.1894Z" fill="white"/>
</svg>
